<?xml version="1.0" encoding="UTF-8"?>
<!-- Created with Inkscape (http://www.inkscape.org/) -->
<svg width="26.698" height="23.734" version="1.1" viewBox="0 0 26.698 23.734" xmlns="http://www.w3.org/2000/svg" xmlns:xlink="http://www.w3.org/1999/xlink">
 <defs>
  <clipPath id="clipPath154">
   <path transform="translate(-15.347 -76.689)" d="m0 144h144v-144h-144z"/>
  </clipPath>
  <clipPath id="clipPath156">
   <path transform="translate(-16.439 -76.471)" d="m0 144h144v-144h-144z"/>
  </clipPath>
  <clipPath id="clipPath158">
   <path transform="translate(-17.228 -76.53)" d="m0 144h144v-144h-144z"/>
  </clipPath>
  <clipPath id="clipPath160">
   <path transform="translate(-15.8 -75.369)" d="m0 144h144v-144h-144z"/>
  </clipPath>
  <clipPath id="clipPath162">
   <path transform="translate(-17.05 -75.393)" d="m0 144h144v-144h-144z"/>
  </clipPath>
  <clipPath id="clipPath164">
   <path transform="translate(-16.597 -74.511)" d="m0 144h144v-144h-144z"/>
  </clipPath>
  <clipPath id="clipPath166">
   <path transform="translate(-14.597 -74.409)" d="m0 144h144v-144h-144z"/>
  </clipPath>
  <clipPath id="clipPath168">
   <path transform="translate(-14.618 -75.291)" d="m0 144h144v-144h-144z"/>
  </clipPath>
  <clipPath id="clipPath170">
   <path transform="translate(-14.506 -75.943)" d="m0 144h144v-144h-144z"/>
  </clipPath>
  <clipPath id="clipPath172">
   <path transform="translate(-15.802 -73.977)" d="m0 144h144v-144h-144z"/>
  </clipPath>
  <clipPath id="clipPath174">
   <path transform="translate(-13.867 -73.283)" d="m0 144h144v-144h-144z"/>
  </clipPath>
  <clipPath id="clipPath176">
   <path transform="translate(-14.452 -73.198)" d="m0 144h144v-144h-144z"/>
  </clipPath>
  <clipPath id="clipPath178">
   <path transform="translate(-15.064 -72.961)" d="m0 144h144v-144h-144z"/>
  </clipPath>
  <clipPath id="clipPath180">
   <path transform="translate(-15.564 -72.632)" d="m0 144h144v-144h-144z"/>
  </clipPath>
  <clipPath id="clipPath182">
   <path transform="translate(-15.946 -72.204)" d="m0 144h144v-144h-144z"/>
  </clipPath>
  <clipPath id="clipPath184">
   <path transform="translate(-14.57 -72.497)" d="m0 144h144v-144h-144z"/>
  </clipPath>
  <clipPath id="clipPath186">
   <path transform="translate(-14.065 -71.122)" d="m0 144h144v-144h-144z"/>
  </clipPath>
  <clipPath id="clipPath188">
   <path transform="translate(-15.241 -71.244)" d="m0 144h144v-144h-144z"/>
  </clipPath>
  <clipPath id="clipPath190">
   <path transform="translate(-16.229 -71.386)" d="m0 144h144v-144h-144z"/>
  </clipPath>
  <clipPath id="clipPath192">
   <path transform="translate(-16.321 -72.935)" d="m0 144h144v-144h-144z"/>
  </clipPath>
  <clipPath id="clipPath194">
   <path transform="translate(-15.154 -69.775)" d="m0 144h144v-144h-144z"/>
  </clipPath>
  <clipPath id="clipPath196">
   <path transform="translate(-16.443 -69.694)" d="m0 144h144v-144h-144z"/>
  </clipPath>
  <clipPath id="clipPath198">
   <path transform="translate(-17.404 -70.002)" d="m0 144h144v-144h-144z"/>
  </clipPath>
  <clipPath id="clipPath200">
   <path transform="translate(-16.082 -68.379)" d="m0 144h144v-144h-144z"/>
  </clipPath>
  <clipPath id="clipPath202">
   <path transform="translate(-17.937 -69.065)" d="m0 144h144v-144h-144z"/>
  </clipPath>
  <clipPath id="clipPath204">
   <path transform="translate(-16.921 -67.785)" d="m0 144h144v-144h-144z"/>
  </clipPath>
  <clipPath id="clipPath206">
   <path transform="translate(-19.003 -67.703)" d="m0 144h144v-144h-144z"/>
  </clipPath>
  <clipPath id="clipPath208">
   <path transform="translate(-17.809 -67.358)" d="m0 144h144v-144h-144z"/>
  </clipPath>
  <clipPath id="clipPath210">
   <path transform="translate(-18.253 -66.036)" d="m0 144h144v-144h-144z"/>
  </clipPath>
  <clipPath id="clipPath212">
   <path transform="translate(-19.452 -66.1)" d="m0 144h144v-144h-144z"/>
  </clipPath>
  <clipPath id="clipPath214">
   <path transform="translate(-18.48 -64.856)" d="m0 144h144v-144h-144z"/>
  </clipPath>
  <clipPath id="clipPath216">
   <path transform="translate(-19.249 -64.772)" d="m0 144h144v-144h-144z"/>
  </clipPath>
  <clipPath id="clipPath218">
   <path transform="translate(-16.936 -66.644)" d="m0 144h144v-144h-144z"/>
  </clipPath>
  <clipPath id="clipPath220">
   <path transform="translate(-17.277 -66.035)" d="m0 144h144v-144h-144z"/>
  </clipPath>
  <clipPath id="clipPath222">
   <path transform="translate(-23.974 -76.689)" d="m0 144h144v-144h-144z"/>
  </clipPath>
  <clipPath id="clipPath224">
   <path transform="translate(-22.882 -76.471)" d="m0 144h144v-144h-144z"/>
  </clipPath>
  <clipPath id="clipPath226">
   <path transform="translate(-22.092 -76.53)" d="m0 144h144v-144h-144z"/>
  </clipPath>
  <clipPath id="clipPath228">
   <path transform="translate(-23.52 -75.369)" d="m0 144h144v-144h-144z"/>
  </clipPath>
  <clipPath id="clipPath230">
   <path transform="translate(-22.27 -75.393)" d="m0 144h144v-144h-144z"/>
  </clipPath>
  <clipPath id="clipPath232">
   <path transform="translate(-22.724 -74.511)" d="m0 144h144v-144h-144z"/>
  </clipPath>
  <clipPath id="clipPath234">
   <path transform="translate(-24.724 -74.409)" d="m0 144h144v-144h-144z"/>
  </clipPath>
  <clipPath id="clipPath236">
   <path transform="translate(-24.702 -75.291)" d="m0 144h144v-144h-144z"/>
  </clipPath>
  <clipPath id="clipPath238">
   <path transform="translate(-24.814 -75.943)" d="m0 144h144v-144h-144z"/>
  </clipPath>
  <clipPath id="clipPath240">
   <path transform="translate(-23.518 -73.977)" d="m0 144h144v-144h-144z"/>
  </clipPath>
  <clipPath id="clipPath242">
   <path transform="translate(-25.453 -73.283)" d="m0 144h144v-144h-144z"/>
  </clipPath>
  <clipPath id="clipPath244">
   <path transform="translate(-24.867 -73.198)" d="m0 144h144v-144h-144z"/>
  </clipPath>
  <clipPath id="clipPath246">
   <path transform="translate(-24.256 -72.961)" d="m0 144h144v-144h-144z"/>
  </clipPath>
  <clipPath id="clipPath248">
   <path transform="translate(-23.756 -72.632)" d="m0 144h144v-144h-144z"/>
  </clipPath>
  <clipPath id="clipPath250">
   <path transform="translate(-23.374 -72.204)" d="m0 144h144v-144h-144z"/>
  </clipPath>
  <clipPath id="clipPath252">
   <path transform="translate(-24.749 -72.497)" d="m0 144h144v-144h-144z"/>
  </clipPath>
  <clipPath id="clipPath254">
   <path transform="translate(-25.256 -71.122)" d="m0 144h144v-144h-144z"/>
  </clipPath>
  <clipPath id="clipPath256">
   <path transform="translate(-24.078 -71.244)" d="m0 144h144v-144h-144z"/>
  </clipPath>
  <clipPath id="clipPath258">
   <path transform="translate(-23.092 -71.386)" d="m0 144h144v-144h-144z"/>
  </clipPath>
  <clipPath id="clipPath260">
   <path transform="translate(-23 -72.935)" d="m0 144h144v-144h-144z"/>
  </clipPath>
  <clipPath id="clipPath262">
   <path transform="translate(-24.165 -69.775)" d="m0 144h144v-144h-144z"/>
  </clipPath>
  <clipPath id="clipPath264">
   <path transform="translate(-22.878 -69.694)" d="m0 144h144v-144h-144z"/>
  </clipPath>
  <clipPath id="clipPath266">
   <path transform="translate(-21.915 -70.002)" d="m0 144h144v-144h-144z"/>
  </clipPath>
  <clipPath id="clipPath268">
   <path transform="translate(-23.239 -68.379)" d="m0 144h144v-144h-144z"/>
  </clipPath>
  <clipPath id="clipPath270">
   <path transform="translate(-21.383 -69.065)" d="m0 144h144v-144h-144z"/>
  </clipPath>
  <clipPath id="clipPath272">
   <path transform="translate(-22.4 -67.785)" d="m0 144h144v-144h-144z"/>
  </clipPath>
  <clipPath id="clipPath274">
   <path transform="translate(-20.318 -67.703)" d="m0 144h144v-144h-144z"/>
  </clipPath>
  <clipPath id="clipPath276">
   <path transform="translate(-21.511 -67.358)" d="m0 144h144v-144h-144z"/>
  </clipPath>
  <clipPath id="clipPath278">
   <path transform="translate(-21.068 -66.036)" d="m0 144h144v-144h-144z"/>
  </clipPath>
  <clipPath id="clipPath280">
   <path transform="translate(-20.84 -64.856)" d="m0 144h144v-144h-144z"/>
  </clipPath>
  <clipPath id="clipPath282">
   <path transform="translate(-20.071 -64.772)" d="m0 144h144v-144h-144z"/>
  </clipPath>
  <clipPath id="clipPath284">
   <path transform="translate(-22.384 -66.644)" d="m0 144h144v-144h-144z"/>
  </clipPath>
  <clipPath id="clipPath286">
   <path transform="translate(-22.044 -66.035)" d="m0 144h144v-144h-144z"/>
  </clipPath>
  <clipPath id="clipPath288">
   <path transform="translate(-20.276 -66.41)" d="m0 144h144v-144h-144z"/>
  </clipPath>
  <clipPath id="clipPath290">
   <path transform="translate(-18.737 -66.475)" d="m0 144h144v-144h-144z"/>
  </clipPath>
 </defs>
 <g transform="translate(-224.6 -85.733)" fill="#123569" fill-rule="evenodd">
  <path transform="matrix(1.3333 0 0 -1.3333 232.46 89.749)" d="m0 0c0.328 0 0.594-0.266 0.594-0.594s-0.266-0.594-0.594-0.594-0.595 0.266-0.595 0.594 0.267 0.594 0.595 0.594" clip-path="url(#clipPath154)"/>
  <path transform="matrix(1.3333 0 0 -1.3333 233.92 90.038)" d="m0 0c0.233 0 0.423-0.189 0.423-0.423 0-0.233-0.19-0.423-0.423-0.423s-0.423 0.19-0.423 0.423c0 0.234 0.19 0.423 0.423 0.423" clip-path="url(#clipPath156)"/>
  <path transform="matrix(1.3333 0 0 -1.3333 234.97 89.96)" d="m0 0c0.166 0 0.301-0.134 0.301-0.3s-0.135-0.301-0.301-0.301-0.301 0.135-0.301 0.301 0.135 0.3 0.301 0.3" clip-path="url(#clipPath158)"/>
  <path transform="matrix(1.3333 0 0 -1.3333 233.07 91.508)" d="m0 0c0.311 0 0.562-0.251 0.562-0.561 0-0.309-0.251-0.56-0.562-0.56-0.31 0-0.561 0.251-0.561 0.56 0 0.31 0.251 0.561 0.561 0.561" clip-path="url(#clipPath160)"/>
  <path transform="matrix(1.3333 0 0 -1.3333 234.73 91.477)" d="m0 0c0.218 0 0.394-0.176 0.394-0.393s-0.176-0.394-0.394-0.394c-0.217 0-0.393 0.177-0.393 0.394s0.176 0.393 0.393 0.393" clip-path="url(#clipPath162)"/>
  <path transform="matrix(1.3333 0 0 -1.3333 234.13 92.652)" d="m0 0c0.2 0 0.363-0.163 0.363-0.363 0-0.201-0.163-0.364-0.363-0.364-0.201 0-0.363 0.163-0.363 0.364 0 0.2 0.162 0.363 0.363 0.363" clip-path="url(#clipPath164)"/>
  <path transform="matrix(1.3333 0 0 -1.3333 231.46 92.788)" d="m0 0c0.284 0 0.515-0.23 0.515-0.515 0-0.284-0.231-0.514-0.515-0.514s-0.515 0.23-0.515 0.514c0 0.285 0.231 0.515 0.515 0.515" clip-path="url(#clipPath166)"/>
  <path transform="matrix(1.3333 0 0 -1.3333 231.49 91.613)" d="m0 0c0.211 0 0.382-0.171 0.382-0.381 0-0.211-0.171-0.382-0.382-0.382s-0.382 0.171-0.382 0.382c0 0.21 0.171 0.381 0.382 0.381" clip-path="url(#clipPath168)"/>
  <path transform="matrix(1.3333 0 0 -1.3333 231.34 90.742)" d="m0 0c0.146 0 0.266-0.119 0.266-0.265s-0.12-0.265-0.266-0.265-0.265 0.119-0.265 0.265 0.119 0.265 0.265 0.265" clip-path="url(#clipPath170)"/>
  <path transform="matrix(1.3333 0 0 -1.3333 233.07 93.365)" d="m0 0c0.296 0 0.535-0.239 0.535-0.535 0-0.295-0.239-0.534-0.535-0.534-0.295 0-0.534 0.239-0.534 0.534 0 0.296 0.239 0.535 0.534 0.535" clip-path="url(#clipPath172)"/>
  <path transform="matrix(1.3333 0 0 -1.3333 230.49 94.289)" d="m0 0c0.138 0 0.25-0.112 0.25-0.25 0-0.139-0.112-0.251-0.25-0.251-0.139 0-0.251 0.112-0.251 0.251 0 0.138 0.112 0.25 0.251 0.25" clip-path="url(#clipPath174)"/>
  <path transform="matrix(1.3333 0 0 -1.3333 231.27 94.403)" d="m0 0c0.139 0 0.251-0.112 0.251-0.25 0-0.139-0.112-0.251-0.251-0.251s-0.251 0.112-0.251 0.251c0 0.138 0.112 0.25 0.251 0.25" clip-path="url(#clipPath176)"/>
  <path transform="matrix(1.3333 0 0 -1.3333 232.08 94.719)" d="m0 0c0.139 0 0.251-0.112 0.251-0.25 0-0.139-0.112-0.251-0.251-0.251-0.138 0-0.25 0.112-0.25 0.251 0 0.138 0.112 0.25 0.25 0.25" clip-path="url(#clipPath178)"/>
  <path transform="matrix(1.3333 0 0 -1.3333 232.75 95.158)" d="m0 0c0.139 0 0.251-0.112 0.251-0.25 0-0.139-0.112-0.251-0.251-0.251-0.138 0-0.25 0.112-0.25 0.251 0 0.138 0.112 0.25 0.25 0.25" clip-path="url(#clipPath180)"/>
  <path transform="matrix(1.3333 0 0 -1.3333 233.26 95.729)" d="m0 0c0.207 0 0.375-0.168 0.375-0.375s-0.168-0.374-0.375-0.374-0.374 0.167-0.374 0.374 0.167 0.375 0.374 0.375" clip-path="url(#clipPath182)"/>
  <path transform="matrix(1.3333 0 0 -1.3333 231.43 95.338)" d="m0 0c0.314 0 0.569-0.255 0.569-0.569s-0.255-0.569-0.569-0.569-0.569 0.255-0.569 0.569 0.255 0.569 0.569 0.569" clip-path="url(#clipPath184)"/>
  <path transform="matrix(1.3333 0 0 -1.3333 230.75 97.171)" d="m0 0c0.299 0 0.542-0.243 0.542-0.542 0-0.3-0.243-0.542-0.542-0.542-0.3 0-0.543 0.242-0.543 0.542 0 0.299 0.243 0.542 0.543 0.542" clip-path="url(#clipPath186)"/>
  <path transform="matrix(1.3333 0 0 -1.3333 232.32 97.008)" d="m0 0c0.3 0 0.543-0.243 0.543-0.542 0-0.3-0.243-0.543-0.543-0.543-0.299 0-0.542 0.243-0.542 0.543 0 0.299 0.243 0.542 0.542 0.542" clip-path="url(#clipPath188)"/>
  <path transform="matrix(1.3333 0 0 -1.3333 233.64 96.819)" d="m0 0c0.203 0 0.369-0.166 0.369-0.369 0-0.204-0.166-0.369-0.369-0.369-0.204 0-0.369 0.165-0.369 0.369 0 0.203 0.165 0.369 0.369 0.369" clip-path="url(#clipPath190)"/>
  <path transform="matrix(1.3333 0 0 -1.3333 233.76 94.754)" d="m0 0c0.139 0 0.251-0.112 0.251-0.25 0-0.139-0.112-0.251-0.251-0.251s-0.251 0.112-0.251 0.251c0 0.138 0.112 0.25 0.251 0.25" clip-path="url(#clipPath192)"/>
  <path transform="matrix(1.3333 0 0 -1.3333 232.21 98.966)" d="m0 0c0.335 0 0.606-0.272 0.606-0.607s-0.271-0.607-0.606-0.607-0.606 0.272-0.606 0.607 0.271 0.607 0.606 0.607" clip-path="url(#clipPath194)"/>
  <path transform="matrix(1.3333 0 0 -1.3333 233.92 99.074)" d="m0 0c0.302 0 0.546-0.244 0.546-0.546s-0.244-0.546-0.546-0.546-0.546 0.244-0.546 0.546 0.244 0.546 0.546 0.546" clip-path="url(#clipPath196)"/>
  <path transform="matrix(1.3333 0 0 -1.3333 235.21 98.664)" d="m0 0c0.231 0 0.419-0.187 0.419-0.419 0-0.231-0.188-0.42-0.419-0.42s-0.419 0.189-0.419 0.42c0 0.232 0.188 0.419 0.419 0.419" clip-path="url(#clipPath198)"/>
  <path transform="matrix(1.3333 0 0 -1.3333 233.44 100.83)" d="m0 0c0.286 0 0.518-0.231 0.518-0.518 0-0.286-0.232-0.518-0.518-0.518s-0.519 0.232-0.519 0.518c0 0.287 0.233 0.518 0.519 0.518" clip-path="url(#clipPath200)"/>
  <path transform="matrix(1.3333 0 0 -1.3333 235.92 99.914)" d="m0 0c0.298 0 0.538-0.24 0.538-0.537 0-0.298-0.24-0.538-0.538-0.538-0.297 0-0.537 0.24-0.537 0.538 0 0.297 0.24 0.537 0.537 0.537" clip-path="url(#clipPath202)"/>
  <path transform="matrix(1.3333 0 0 -1.3333 234.56 101.62)" d="m0 0c0.22 0 0.398-0.178 0.398-0.397 0-0.221-0.178-0.399-0.398-0.399s-0.398 0.178-0.398 0.399c0 0.219 0.178 0.397 0.398 0.397" clip-path="url(#clipPath204)"/>
  <path transform="matrix(1.3333 0 0 -1.3333 237.34 101.73)" d="m0 0c0.318 0 0.577-0.259 0.577-0.577 0-0.319-0.259-0.577-0.577-0.577-0.319 0-0.577 0.258-0.577 0.577 0 0.318 0.258 0.577 0.577 0.577" clip-path="url(#clipPath206)"/>
  <path transform="matrix(1.3333 0 0 -1.3333 235.75 102.19)" d="m0 0c0.295 0 0.533-0.239 0.533-0.533 0-0.295-0.238-0.533-0.533-0.533-0.294 0-0.533 0.238-0.533 0.533 0 0.294 0.239 0.533 0.533 0.533" clip-path="url(#clipPath208)"/>
  <path transform="matrix(1.3333 0 0 -1.3333 236.34 103.95)" d="m0 0c0.294 0 0.533-0.239 0.533-0.533 0-0.295-0.239-0.533-0.533-0.533-0.295 0-0.533 0.238-0.533 0.533 0 0.294 0.238 0.533 0.533 0.533" clip-path="url(#clipPath210)"/>
  <path transform="matrix(1.3333 0 0 -1.3333 237.94 103.87)" d="m0 0c0.294 0 0.532-0.238 0.532-0.532 0-0.295-0.238-0.533-0.532-0.533-0.295 0-0.533 0.238-0.533 0.533 0 0.294 0.238 0.532 0.533 0.532" clip-path="url(#clipPath212)"/>
  <path transform="matrix(1.3333 0 0 -1.3333 236.64 105.52)" d="m0 0c0.213 0 0.385-0.173 0.385-0.385 0-0.213-0.172-0.385-0.385-0.385-0.212 0-0.385 0.172-0.385 0.385 0 0.212 0.173 0.385 0.385 0.385" clip-path="url(#clipPath214)"/>
  <path transform="matrix(1.3333 0 0 -1.3333 237.67 105.64)" d="m0 0c0.134 0 0.242-0.108 0.242-0.241 0-0.134-0.108-0.242-0.242-0.242-0.133 0-0.241 0.108-0.241 0.242 0 0.133 0.108 0.241 0.241 0.241" clip-path="url(#clipPath216)"/>
  <path transform="matrix(1.3333 0 0 -1.3333 234.58 103.14)" d="m0 0c0.175 0 0.316-0.142 0.316-0.316 0-0.175-0.141-0.318-0.316-0.318s-0.316 0.143-0.316 0.318c0 0.174 0.141 0.316 0.316 0.316" clip-path="url(#clipPath218)"/>
  <path transform="matrix(1.3333 0 0 -1.3333 235.04 103.95)" d="m0 0c0.154 0 0.28-0.126 0.28-0.281s-0.126-0.281-0.28-0.281c-0.155 0-0.281 0.126-0.281 0.281s0.126 0.281 0.281 0.281" clip-path="url(#clipPath220)"/>
  <path transform="matrix(1.3333 0 0 -1.3333 243.97 89.749)" d="m0 0c-0.328 0-0.594-0.266-0.594-0.594s0.266-0.594 0.594-0.594 0.594 0.266 0.594 0.594-0.266 0.594-0.594 0.594" clip-path="url(#clipPath222)"/>
  <path transform="matrix(1.3333 0 0 -1.3333 242.51 90.038)" d="m0 0c-0.233 0-0.423-0.189-0.423-0.423 0-0.233 0.19-0.423 0.423-0.423s0.423 0.19 0.423 0.423c0 0.234-0.19 0.423-0.423 0.423" clip-path="url(#clipPath224)"/>
  <path transform="matrix(1.3333 0 0 -1.3333 241.46 89.96)" d="m0 0c-0.166 0-0.3-0.134-0.3-0.3s0.134-0.301 0.3-0.301 0.301 0.135 0.301 0.301-0.135 0.3-0.301 0.3" clip-path="url(#clipPath226)"/>
  <path transform="matrix(1.3333 0 0 -1.3333 243.36 91.508)" d="m0 0c-0.31 0-0.561-0.251-0.561-0.561 0-0.309 0.251-0.56 0.561-0.56s0.561 0.251 0.561 0.56c0 0.31-0.251 0.561-0.561 0.561" clip-path="url(#clipPath228)"/>
  <path transform="matrix(1.3333 0 0 -1.3333 241.69 91.477)" d="m0 0c-0.217 0-0.393-0.176-0.393-0.393s0.176-0.394 0.393-0.394c0.218 0 0.394 0.177 0.394 0.394s-0.176 0.393-0.394 0.393" clip-path="url(#clipPath230)"/>
  <path transform="matrix(1.3333 0 0 -1.3333 242.3 92.652)" d="m0 0c-0.201 0-0.363-0.163-0.363-0.363 0-0.201 0.162-0.364 0.363-0.364 0.2 0 0.363 0.163 0.363 0.364 0 0.2-0.163 0.363-0.363 0.363" clip-path="url(#clipPath232)"/>
  <path transform="matrix(1.3333 0 0 -1.3333 244.97 92.788)" d="m0 0c-0.285 0-0.515-0.23-0.515-0.515 0-0.284 0.23-0.514 0.515-0.514 0.284 0 0.515 0.23 0.515 0.514 0 0.285-0.231 0.515-0.515 0.515" clip-path="url(#clipPath234)"/>
  <path transform="matrix(1.3333 0 0 -1.3333 244.94 91.613)" d="m0 0c-0.211 0-0.382-0.171-0.382-0.381 0-0.211 0.171-0.382 0.382-0.382s0.382 0.171 0.382 0.382c0 0.21-0.171 0.381-0.382 0.381" clip-path="url(#clipPath236)"/>
  <path transform="matrix(1.3333 0 0 -1.3333 245.08 90.742)" d="m0 0c-0.146 0-0.265-0.119-0.265-0.265s0.119-0.265 0.265-0.265 0.265 0.119 0.265 0.265-0.119 0.265-0.265 0.265" clip-path="url(#clipPath238)"/>
  <path transform="matrix(1.3333 0 0 -1.3333 243.36 93.365)" d="m0 0c-0.295 0-0.534-0.239-0.534-0.535 0-0.295 0.239-0.534 0.534-0.534 0.296 0 0.535 0.239 0.535 0.534 0 0.296-0.239 0.535-0.535 0.535" clip-path="url(#clipPath240)"/>
  <path transform="matrix(1.3333 0 0 -1.3333 245.94 94.289)" d="m0 0c-0.139 0-0.251-0.112-0.251-0.25 0-0.139 0.112-0.251 0.251-0.251s0.251 0.112 0.251 0.251c0 0.138-0.112 0.25-0.251 0.25" clip-path="url(#clipPath242)"/>
  <path transform="matrix(1.3333 0 0 -1.3333 245.16 94.403)" d="m0 0c-0.138 0-0.25-0.112-0.25-0.25 0-0.139 0.112-0.251 0.25-0.251 0.139 0 0.251 0.112 0.251 0.251 0 0.138-0.112 0.25-0.251 0.25" clip-path="url(#clipPath244)"/>
  <path transform="matrix(1.3333 0 0 -1.3333 244.34 94.719)" d="m0 0c-0.139 0-0.25-0.112-0.25-0.25 0-0.139 0.111-0.251 0.25-0.251s0.251 0.112 0.251 0.251c0 0.138-0.112 0.25-0.251 0.25" clip-path="url(#clipPath246)"/>
  <path transform="matrix(1.3333 0 0 -1.3333 243.67 95.158)" d="m0 0c-0.138 0-0.25-0.112-0.25-0.25 0-0.139 0.112-0.251 0.25-0.251 0.139 0 0.251 0.112 0.251 0.251 0 0.138-0.112 0.25-0.251 0.25" clip-path="url(#clipPath248)"/>
  <path transform="matrix(1.3333 0 0 -1.3333 243.17 95.729)" d="m0 0c-0.206 0-0.374-0.168-0.374-0.375s0.168-0.374 0.374-0.374c0.207 0 0.375 0.167 0.375 0.374s-0.168 0.375-0.375 0.375" clip-path="url(#clipPath250)"/>
  <path transform="matrix(1.3333 0 0 -1.3333 245 95.338)" d="m0 0c-0.314 0-0.568-0.255-0.568-0.569s0.254-0.569 0.568-0.569 0.569 0.255 0.569 0.569-0.255 0.569-0.569 0.569" clip-path="url(#clipPath252)"/>
  <path transform="matrix(1.3333 0 0 -1.3333 245.67 97.171)" d="m0 0c-0.3 0-0.543-0.243-0.543-0.542 0-0.3 0.243-0.542 0.543-0.542s0.542 0.242 0.542 0.542c0 0.299-0.242 0.542-0.542 0.542" clip-path="url(#clipPath254)"/>
  <path transform="matrix(1.3333 0 0 -1.3333 244.1 97.008)" d="m0 0c-0.3 0-0.542-0.243-0.542-0.542 0-0.3 0.242-0.543 0.542-0.543s0.543 0.243 0.543 0.543c0 0.299-0.243 0.542-0.543 0.542" clip-path="url(#clipPath256)"/>
  <path transform="matrix(1.3333 0 0 -1.3333 242.79 96.819)" d="m0 0c-0.204 0-0.369-0.166-0.369-0.369 0-0.204 0.165-0.369 0.369-0.369 0.203 0 0.368 0.165 0.368 0.369 0 0.203-0.165 0.369-0.368 0.369" clip-path="url(#clipPath258)"/>
  <path transform="matrix(1.3333 0 0 -1.3333 242.67 94.754)" d="m0 0c-0.139 0-0.251-0.112-0.251-0.25 0-0.139 0.112-0.251 0.251-0.251 0.138 0 0.25 0.112 0.25 0.251 0 0.138-0.112 0.25-0.25 0.25" clip-path="url(#clipPath260)"/>
  <path transform="matrix(1.3333 0 0 -1.3333 244.22 98.966)" d="m0 0c-0.335 0-0.606-0.272-0.606-0.607s0.271-0.607 0.606-0.607c0.336 0 0.607 0.272 0.607 0.607s-0.271 0.607-0.607 0.607" clip-path="url(#clipPath262)"/>
  <path transform="matrix(1.3333 0 0 -1.3333 242.5 99.074)" d="m0 0c-0.302 0-0.546-0.244-0.546-0.546s0.244-0.546 0.546-0.546 0.546 0.244 0.546 0.546-0.244 0.546-0.546 0.546" clip-path="url(#clipPath264)"/>
  <path transform="matrix(1.3333 0 0 -1.3333 241.22 98.664)" d="m0 0c-0.231 0-0.419-0.187-0.419-0.419 0-0.231 0.188-0.42 0.419-0.42 0.232 0 0.42 0.189 0.42 0.42 0 0.232-0.188 0.419-0.42 0.419" clip-path="url(#clipPath266)"/>
  <path transform="matrix(1.3333 0 0 -1.3333 242.98 100.83)" d="m0 0c-0.286 0-0.519-0.231-0.519-0.518 0-0.286 0.233-0.518 0.519-0.518s0.518 0.232 0.518 0.518c0 0.287-0.232 0.518-0.518 0.518" clip-path="url(#clipPath268)"/>
  <path transform="matrix(1.3333 0 0 -1.3333 240.51 99.914)" d="m0 0c-0.297 0-0.538-0.24-0.538-0.537 0-0.298 0.241-0.538 0.538-0.538s0.538 0.24 0.538 0.538c0 0.297-0.241 0.537-0.538 0.537" clip-path="url(#clipPath270)"/>
  <path transform="matrix(1.3333 0 0 -1.3333 241.87 101.62)" d="m0 0c-0.22 0-0.398-0.178-0.398-0.397 0-0.221 0.178-0.399 0.398-0.399s0.397 0.178 0.397 0.399c0 0.219-0.177 0.397-0.397 0.397" clip-path="url(#clipPath272)"/>
  <path transform="matrix(1.3333 0 0 -1.3333 239.09 101.73)" d="m0 0c-0.319 0-0.577-0.259-0.577-0.577 0-0.319 0.258-0.577 0.577-0.577 0.318 0 0.577 0.258 0.577 0.577 0 0.318-0.259 0.577-0.577 0.577" clip-path="url(#clipPath274)"/>
  <path transform="matrix(1.3333 0 0 -1.3333 240.68 102.19)" d="m0 0c-0.294 0-0.533-0.239-0.533-0.533 0-0.295 0.239-0.533 0.533-0.533 0.295 0 0.533 0.238 0.533 0.533 0 0.294-0.238 0.533-0.533 0.533" clip-path="url(#clipPath276)"/>
  <path transform="matrix(1.3333 0 0 -1.3333 240.09 103.95)" d="m0 0c-0.295 0-0.533-0.239-0.533-0.533 0-0.295 0.238-0.533 0.533-0.533 0.294 0 0.532 0.238 0.532 0.533 0 0.294-0.238 0.533-0.532 0.533" clip-path="url(#clipPath278)"/>
  <path transform="matrix(1.3333 0 0 -1.3333 239.79 105.52)" d="m0 0c-0.212 0-0.385-0.173-0.385-0.385 0-0.213 0.173-0.385 0.385-0.385 0.213 0 0.385 0.172 0.385 0.385 0 0.212-0.172 0.385-0.385 0.385" clip-path="url(#clipPath280)"/>
  <path transform="matrix(1.3333 0 0 -1.3333 238.76 105.64)" d="m0 0c-0.133 0-0.241-0.108-0.241-0.241 0-0.134 0.108-0.242 0.241-0.242 0.134 0 0.241 0.108 0.241 0.242 0 0.133-0.107 0.241-0.241 0.241" clip-path="url(#clipPath282)"/>
  <path transform="matrix(1.3333 0 0 -1.3333 241.85 103.14)" d="m0 0c-0.175 0-0.316-0.142-0.316-0.316 0-0.175 0.141-0.318 0.316-0.318s0.317 0.143 0.317 0.318c0 0.174-0.142 0.316-0.317 0.316" clip-path="url(#clipPath284)"/>
  <path transform="matrix(1.3333 0 0 -1.3333 241.39 103.95)" d="m0 0c-0.155 0-0.281-0.126-0.281-0.281s0.126-0.281 0.281-0.281 0.281 0.126 0.281 0.281-0.126 0.281-0.281 0.281" clip-path="url(#clipPath286)"/>
  <path transform="matrix(1.3333 0 0 -1.3333 239.03 103.45)" d="m0 0c-0.17 0-0.308-0.139-0.308-0.309s0.138-0.308 0.308-0.308c0.171 0 0.309 0.138 0.309 0.308s-0.138 0.309-0.309 0.309" clip-path="url(#clipPath288)"/>
  <path transform="matrix(1.3333 0 0 -1.3333 236.98 103.37)" d="m0 0c-0.136 0-0.246-0.11-0.246-0.246s0.11-0.246 0.246-0.246 0.246 0.11 0.246 0.246-0.11 0.246-0.246 0.246" clip-path="url(#clipPath290)"/>
 </g>
</svg>
